<svg width="23" height="24" viewBox="0 0 23 24" fill="none" xmlns="http://www.w3.org/2000/svg">
<path d="M14.9414 24L8.94141 19.5V14.38L0.941406 5.38V3C0.941406 2.20435 1.25748 1.44129 1.82009 0.87868C2.3827 0.31607 3.14576 0 3.94141 0L19.9414 0C20.7371 0 21.5001 0.31607 22.0627 0.87868C22.6253 1.44129 22.9414 2.20435 22.9414 3V5.38L14.9414 14.38V24ZM10.9414 18.5L12.9414 20V13.62L20.9414 4.62V3C20.9414 2.73478 20.8361 2.48043 20.6485 2.29289C20.461 2.10536 20.2066 2 19.9414 2H3.94141C3.67619 2 3.42184 2.10536 3.2343 2.29289C3.04676 2.48043 2.94141 2.73478 2.94141 3V4.62L10.9414 13.62V18.5Z" fill="#032F5C"/>
</svg>
