<svg width="25" height="25" viewBox="0 0 25 25" fill="none" xmlns="http://www.w3.org/2000/svg">
<path fill-rule="evenodd" clip-rule="evenodd" d="M19.3099 23.481C19.111 23.481 18.9203 23.402 18.7796 23.2614C18.639 23.1207 18.5599 22.93 18.5599 22.731V3.23105C18.5599 3.03214 18.639 2.84137 18.7796 2.70072C18.9203 2.56007 19.111 2.48105 19.3099 2.48105C19.5088 2.48105 19.6996 2.56007 19.8403 2.70072C19.9809 2.84137 20.0599 3.03214 20.0599 3.23105V22.731C20.0599 22.93 19.9809 23.1207 19.8403 23.2614C19.6996 23.402 19.5088 23.481 19.3099 23.481ZM15.5599 12.981C15.5599 13.18 15.4809 13.3707 15.3403 13.5114C15.1996 13.652 15.0088 13.731 14.8099 13.731H6.12043L9.34093 16.95C9.41067 17.0198 9.46598 17.1026 9.50372 17.1937C9.54146 17.2848 9.56088 17.3824 9.56088 17.481C9.56088 17.5797 9.54146 17.6773 9.50372 17.7684C9.46598 17.8595 9.41067 17.9423 9.34093 18.012C9.2712 18.0818 9.18842 18.1371 9.09731 18.1748C9.0062 18.2126 8.90855 18.232 8.80993 18.232C8.71132 18.232 8.61367 18.2126 8.52256 18.1748C8.43145 18.1371 8.34867 18.0818 8.27893 18.012L3.77893 13.512C3.70909 13.4424 3.65368 13.3596 3.61587 13.2685C3.57806 13.1774 3.55859 13.0797 3.55859 12.981C3.55859 12.8824 3.57806 12.7847 3.61587 12.6936C3.65368 12.6025 3.70909 12.5197 3.77893 12.45L8.27893 7.95005C8.41976 7.80922 8.61077 7.7301 8.80993 7.7301C9.0091 7.7301 9.2001 7.80922 9.34093 7.95005C9.48176 8.09088 9.56088 8.28189 9.56088 8.48105C9.56088 8.68021 9.48176 8.87122 9.34093 9.01205L6.12043 12.231H14.8099C15.0088 12.231 15.1996 12.3101 15.3403 12.4507C15.4809 12.5914 15.5599 12.7821 15.5599 12.981Z" fill="#032F5C"/>
</svg>
