<svg width="25" height="25" viewBox="0 0 25 25" fill="none" xmlns="http://www.w3.org/2000/svg">
<path d="M20.5245 16.8405C20.145 15.6884 19.9511 14.4834 19.95 13.2705V10.2735C19.9776 8.37444 19.2999 6.53267 18.048 5.10446C16.8004 3.674 15.0688 2.75425 13.185 2.52146C12.144 2.41346 11.085 2.52146 10.08 2.86196C9.07498 3.18446 8.15998 3.72296 7.38898 4.44146C6.61414 5.14143 5.99655 5.99777 5.57698 6.95396C5.15533 7.90979 4.93525 8.94228 4.93048 9.98696V13.287C4.92829 14.4949 4.73437 15.6948 4.35598 16.842L3.45898 19.4955L4.17748 20.4825H9.43498C9.43498 21.2715 9.75748 22.0425 10.314 22.6005C10.869 23.1555 11.6415 23.4795 12.432 23.4795C13.221 23.4795 13.992 23.157 14.5485 22.6005C15.105 22.044 15.429 21.2715 15.429 20.4825H20.6865L21.4035 19.4955L20.5245 16.8405ZM13.4895 21.561C13.3515 21.7017 13.187 21.8138 13.0055 21.8908C12.824 21.9678 12.6291 22.0081 12.432 22.0095C12.2345 22.0081 12.0392 21.9676 11.8575 21.8904C11.6757 21.8132 11.511 21.7007 11.373 21.5595C11.2319 21.4216 11.1196 21.2572 11.0423 21.0757C10.9651 20.8942 10.9245 20.6992 10.923 20.502H13.9215C13.9277 20.6988 13.8927 20.8947 13.8185 21.0771C13.7443 21.2595 13.6328 21.4243 13.491 21.561H13.4895ZM5.21698 18.996L5.77348 17.325C6.20745 16.0232 6.43175 14.6607 6.43798 13.2885V9.98696C6.43798 9.14246 6.61798 8.31746 6.95848 7.56296C7.29898 6.79196 7.78348 6.10946 8.41198 5.55296C9.04048 4.97996 9.77698 4.54796 10.566 4.29746C11.373 4.02746 12.216 3.93746 13.041 4.02746C14.553 4.22628 15.9393 4.97361 16.9365 6.12746C17.934 7.28275 18.4702 8.7654 18.4425 10.2915V13.3065C18.4425 14.67 18.6585 16.0335 19.107 17.343L19.6635 19.0125H5.21848V18.9945L5.21698 18.996Z" fill="#032F5C"/>
</svg>
