<svg width="21" height="20" viewBox="0 0 21 20" fill="none" xmlns="http://www.w3.org/2000/svg">
<path d="M10.7635 13.4627L10.7529 13.458L10.7422 13.4538C10.6822 13.4306 10.6273 13.396 10.5804 13.3519L6.58496 9.35645C6.53815 9.30964 6.50102 9.25407 6.47569 9.19291C6.45035 9.13175 6.43731 9.0662 6.43731 9C6.43731 8.9338 6.45035 8.86825 6.47569 8.80709C6.50102 8.74593 6.53815 8.69036 6.58496 8.64355C6.63177 8.59674 6.68734 8.55961 6.7485 8.53428C6.80966 8.50895 6.87521 8.49591 6.94141 8.49591C7.00761 8.49591 7.07316 8.50895 7.13432 8.53428C7.19535 8.55956 7.25082 8.59659 7.29757 8.64327C7.29766 8.64336 7.29776 8.64346 7.29785 8.64355L9.58708 10.9428L10.4414 11.8008V10.59V1C10.4414 0.867392 10.4941 0.740215 10.5879 0.646446C10.6816 0.552678 10.8088 0.5 10.9414 0.5C11.074 0.5 11.2012 0.552678 11.295 0.646446C11.3887 0.740215 11.4414 0.867392 11.4414 1V10.59V11.8008L12.2957 10.9428L14.585 8.64355C14.585 8.64352 14.585 8.64348 14.5851 8.64345C14.6796 8.54898 14.8078 8.49591 14.9414 8.49591C15.0751 8.49591 15.2033 8.54902 15.2979 8.64355C15.3924 8.73809 15.4455 8.86631 15.4455 9C15.4455 9.13369 15.3924 9.26191 15.2979 9.35645L11.3024 13.3519C11.2555 13.396 11.2006 13.4306 11.1407 13.4538L11.1299 13.458L11.1193 13.4627C11.0632 13.4874 11.0027 13.5002 10.9414 13.5002C10.8801 13.5002 10.8196 13.4874 10.7635 13.4627ZM19.5879 12.6464C19.6816 12.5527 19.8088 12.5 19.9414 12.5C20.074 12.5 20.2012 12.5527 20.295 12.6464C20.3887 12.7402 20.4414 12.8674 20.4414 13V17C20.4414 17.663 20.178 18.2989 19.7092 18.7678C19.2403 19.2366 18.6044 19.5 17.9414 19.5H3.94141C3.27836 19.5 2.64248 19.2366 2.17364 18.7678C1.7048 18.2989 1.44141 17.663 1.44141 17V13C1.44141 12.8674 1.49408 12.7402 1.58785 12.6464C1.68162 12.5527 1.8088 12.5 1.94141 12.5C2.07401 12.5 2.20119 12.5527 2.29496 12.6464C2.38873 12.7402 2.44141 12.8674 2.44141 13V17C2.44141 17.3978 2.59944 17.7794 2.88075 18.0607C3.16205 18.342 3.54358 18.5 3.94141 18.5H17.9414C18.3392 18.5 18.7208 18.342 19.0021 18.0607C19.2834 17.7794 19.4414 17.3978 19.4414 17V13C19.4414 12.8674 19.4941 12.7402 19.5879 12.6464Z" fill="#032F5C" stroke="#032F5C"/>
</svg>
