<svg width="25" height="25" viewBox="0 0 25 25" fill="none" xmlns="http://www.w3.org/2000/svg">
<path d="M12.7422 3.23105C10.8138 3.23105 8.92876 3.80288 7.32538 4.87422C5.722 5.94556 4.47232 7.46831 3.73437 9.24988C2.99641 11.0315 2.80333 12.9919 3.17954 14.8832C3.55574 16.7745 4.48434 18.5118 5.8479 19.8753C7.21146 21.2389 8.94875 22.1675 10.8401 22.5437C12.7314 22.9199 14.6918 22.7268 16.4734 21.9889C18.2549 21.2509 19.7777 20.0012 20.849 18.3979C21.9204 16.7945 22.4922 14.9094 22.4922 12.981C22.4893 10.3961 21.4611 7.91784 19.6332 6.08999C17.8054 4.26215 15.3272 3.23398 12.7422 3.23105ZM12.7422 21.231C11.1105 21.231 9.51544 20.7472 8.15874 19.8407C6.80203 18.9342 5.74461 17.6457 5.12019 16.1382C4.49576 14.6307 4.33239 12.9719 4.65071 11.3716C4.96904 9.77121 5.75478 8.3012 6.90856 7.14742C8.06234 5.99363 9.53235 5.2079 11.1327 4.88957C12.733 4.57124 14.3918 4.73462 15.8993 5.35904C17.4068 5.98347 18.6953 7.04089 19.6018 8.39759C20.5083 9.7543 20.9922 11.3494 20.9922 12.981C20.9897 15.1683 20.1197 17.2653 18.5731 18.8119C17.0264 20.3586 14.9295 21.2286 12.7422 21.231ZM14.2422 17.481C14.2422 17.68 14.1632 17.8707 14.0225 18.0114C13.8819 18.152 13.6911 18.231 13.4922 18.231H12.7422C12.5433 18.231 12.3525 18.152 12.2119 18.0114C12.0712 17.8707 11.9922 17.68 11.9922 17.481V12.981C11.7933 12.981 11.6025 12.902 11.4619 12.7614C11.3212 12.6207 11.2422 12.43 11.2422 12.231C11.2422 12.0321 11.3212 11.8414 11.4619 11.7007C11.6025 11.5601 11.7933 11.481 11.9922 11.481H12.7422C12.9411 11.481 13.1319 11.5601 13.2725 11.7007C13.4132 11.8414 13.4922 12.0321 13.4922 12.231V16.731C13.6911 16.731 13.8819 16.8101 14.0225 16.9507C14.1632 17.0914 14.2422 17.2821 14.2422 17.481ZM11.4297 8.85605C11.4297 8.63354 11.4957 8.41604 11.6193 8.23103C11.7429 8.04603 11.9186 7.90183 12.1242 7.81668C12.3297 7.73154 12.5559 7.70926 12.7742 7.75267C12.9924 7.79607 13.1929 7.90322 13.3502 8.06055C13.5075 8.21789 13.6147 8.41834 13.6581 8.63657C13.7015 8.8548 13.6792 9.081 13.5941 9.28657C13.5089 9.49213 13.3647 9.66784 13.1797 9.79145C12.9947 9.91507 12.7772 9.98105 12.5547 9.98105C12.2563 9.98105 11.9702 9.86252 11.7592 9.65154C11.5482 9.44057 11.4297 9.15442 11.4297 8.85605Z" fill="#032F5C"/>
</svg>
