<svg width="7" height="10" viewBox="0 0 7 10" fill="none" xmlns="http://www.w3.org/2000/svg">
<path fill-rule="evenodd" clip-rule="evenodd" d="M0.791952 2.90858C0.742827 2.95024 0.703426 3.00048 0.676098 3.05631C0.64877 3.11213 0.634075 3.1724 0.63289 3.2335C0.631706 3.29461 0.644056 3.35531 0.669203 3.41197C0.69435 3.46864 0.73178 3.52012 0.779259 3.56333C0.826738 3.60655 0.883294 3.64062 0.945553 3.66351C1.00781 3.68639 1.0745 3.69764 1.14163 3.69656C1.20877 3.69548 1.27498 3.6821 1.33631 3.65723C1.39764 3.63236 1.45284 3.59649 1.49862 3.55178L3.64528 1.5979L5.79195 3.55178C5.88673 3.63217 6.0121 3.67593 6.14163 3.67385C6.27117 3.67177 6.39476 3.62401 6.48637 3.54063C6.57797 3.45725 6.63045 3.34476 6.63273 3.22686C6.63502 3.10895 6.58694 2.99485 6.49862 2.90858L3.99862 0.633094C3.90487 0.54787 3.77779 0.5 3.64528 0.5C3.51278 0.5 3.3857 0.54787 3.29195 0.633094L0.791952 2.90858ZM6.49862 7.09142C6.58694 7.00515 6.63502 6.89105 6.63273 6.77314C6.63045 6.65524 6.57797 6.54275 6.48637 6.45937C6.39476 6.37599 6.27117 6.32823 6.14163 6.32615C6.0121 6.32407 5.88673 6.36783 5.79195 6.44822L3.64528 8.4021L1.49862 6.44822C1.40383 6.36783 1.27847 6.32407 1.14894 6.32615C1.0194 6.32823 0.895812 6.37599 0.804204 6.45937C0.712595 6.54275 0.66012 6.65524 0.657835 6.77314C0.655549 6.89105 0.703632 7.00515 0.791952 7.09142L3.29195 9.36691C3.3857 9.45213 3.51278 9.5 3.64528 9.5C3.77779 9.5 3.90487 9.45213 3.99862 9.36691L6.49862 7.09142Z" fill="#032F5C"/>
</svg>
