<svg width="7" height="8" viewBox="0 0 7 8" fill="none" xmlns="http://www.w3.org/2000/svg">
<path d="M6.73663 4.55335C6.70066 4.50588 6.65649 4.46663 6.60663 4.43787C6.55678 4.4091 6.50223 4.39138 6.44611 4.38572C6.38999 4.38006 6.3334 4.38657 6.27958 4.40487C6.22576 4.42318 6.17577 4.45292 6.13248 4.4924L4.26431 6.19428L4.26431 0.633876C4.26431 0.509532 4.21916 0.390282 4.13881 0.302358C4.05845 0.214434 3.94947 0.165039 3.83583 0.165039C3.72219 0.165039 3.6132 0.214434 3.53285 0.302358C3.45249 0.390282 3.40735 0.509532 3.40735 0.633876L3.40735 6.19428L1.53918 4.4924C1.49585 4.453 1.44586 4.42332 1.39205 4.40505C1.33824 4.38679 1.28167 4.3803 1.22556 4.38596C1.16946 4.39162 1.11493 4.40932 1.06508 4.43804C1.01523 4.46676 0.971035 4.50594 0.935023 4.55335C0.899011 4.60076 0.871886 4.65546 0.855195 4.71434C0.838505 4.77322 0.832577 4.83512 0.837749 4.8965C0.842922 4.95789 0.859093 5.01756 0.885341 5.0721C0.911588 5.12665 0.947399 5.175 0.990726 5.21441L3.5616 7.55859L3.62587 7.60079L3.68158 7.6336C3.78084 7.67552 3.89081 7.67552 3.99008 7.6336L4.04578 7.60079L4.11005 7.55859L6.68093 5.21441C6.72432 5.17505 6.76018 5.12671 6.78647 5.07216C6.81276 5.01762 6.82895 4.95793 6.83413 4.89652C6.8393 4.83512 6.83335 4.7732 6.81662 4.71431C6.79989 4.65542 6.77271 4.60072 6.73663 4.55335V4.55335Z" fill="#032F5C"/>
</svg>
