<svg width="6" height="8" viewBox="0 0 6 8" fill="none" xmlns="http://www.w3.org/2000/svg">
<path d="M0.0993046 3.11169C0.135275 3.15916 0.179451 3.19841 0.229304 3.22717C0.279156 3.25593 0.333705 3.27365 0.389826 3.27932C0.445947 3.28498 0.502537 3.27847 0.556356 3.26016C0.610174 3.24186 0.660163 3.21212 0.70346 3.17264L2.57163 1.47076V7.03116C2.57163 7.15551 2.61677 7.27476 2.69713 7.36268C2.77748 7.45061 2.88647 7.5 3.00011 7.5C3.11375 7.5 3.22273 7.45061 3.30309 7.36268C3.38345 7.27476 3.42859 7.15551 3.42859 7.03116V1.47076L5.29676 3.17264C5.34009 3.21204 5.39008 3.24172 5.44389 3.25999C5.4977 3.27825 5.55427 3.28473 5.61037 3.27907C5.66647 3.27341 5.72101 3.25572 5.77086 3.227C5.82071 3.19828 5.8649 3.1591 5.90091 3.11169C5.93693 3.06428 5.96405 3.00958 5.98074 2.9507C5.99743 2.89182 6.00336 2.82992 5.99819 2.76854C5.99302 2.70715 5.97684 2.64748 5.9506 2.59294C5.92435 2.53839 5.88854 2.49003 5.84521 2.45063L3.27434 0.106448L3.21006 0.0642528L3.15436 0.0314344C3.05509 -0.0104781 2.94513 -0.0104781 2.84586 0.0314344L2.79015 0.0642528L2.72588 0.106448L0.155007 2.45063C0.11162 2.48999 0.075755 2.53833 0.0494669 2.59287C0.0231788 2.64742 0.00698391 2.70711 0.00180965 2.76852C-0.00336461 2.82992 0.00258355 2.89184 0.0193133 2.95073C0.0360431 3.00962 0.0632258 3.06432 0.0993046 3.11169V3.11169Z" fill="#032F5C"/>
</svg>
